<?xml version="1.0" encoding="UTF-8" standalone="no"?>
<svg
   width="256"
   height="256"
   viewBox="0 0 256 256"
   fill="none"
   version="1.1"
   id="svg2"
   sodipodi:docname="abs-icon copy.svg"
   inkscape:version="1.4.2 (ebf0e940, 2025-05-08)"
   xmlns:inkscape="http://www.inkscape.org/namespaces/inkscape"
   xmlns:sodipodi="http://sodipodi.sourceforge.net/DTD/sodipodi-0.dtd"
   xmlns="http://www.w3.org/2000/svg"
   xmlns:svg="http://www.w3.org/2000/svg">
  <defs
     id="defs2" />
  <sodipodi:namedview
     id="namedview2"
     pagecolor="#ffffff"
     bordercolor="#000000"
     borderopacity="0.25"
     inkscape:showpageshadow="2"
     inkscape:pageopacity="0.0"
     inkscape:pagecheckerboard="true"
     inkscape:deskcolor="#d1d1d1"
     inkscape:zoom="3.25"
     inkscape:cx="128"
     inkscape:cy="127.84615"
     inkscape:window-width="2560"
     inkscape:window-height="1604"
     inkscape:window-x="2972"
     inkscape:window-y="1528"
     inkscape:window-maximized="0"
     inkscape:current-layer="svg2" />
  <rect
     width="229.32492"
     height="229.32492"
     fill="#b6883f"
     id="rect1"
     x="12.769231"
     y="12.769231"
     style="display:none" />
  <path
     d="m 16.654931,177.03834 32.509447,53.75499 100.624472,8.95859 62.69612,-16.53982 27.8648,-46.17376 -3.09523,-73.05183 L 224.86976,48.163408 162.17364,8.1916769 80.125695,13.705027 20.525192,68.149274 Z"
     fill="#ffffff"
     id="path1"
     style="display:inline;stroke-width:1.21845" />
  <path
     fill-rule="evenodd"
     clip-rule="evenodd"
     d="M 120.68625,0.24305241 C 40.217286,5.2886993 -15.392133,80.856219 3.8092692,159.06514 15.797995,207.89845 56.610532,245.82096 106.13936,254.14677 193.86546,268.89485 269.10187,193.4263 254.07672,105.75222 243.23192,42.466874 184.76945,-3.7747088 120.68625,0.24305241 Z M 135.44434,19.836254 c 37.20755,3.681656 66.67902,32.820443 70.52527,69.728724 0.27937,2.685642 0.37993,6.492304 0.37993,14.402102 v 10.75218 l 1.17779,0.83784 c 2.60253,1.84881 4.27534,3.32451 4.63963,4.09197 0.54866,1.15508 0.57884,22.82812 0.0324,23.86926 -0.96883,1.84993 -8.58645,7.21206 -14.86648,10.46397 l -2.63382,1.36399 -0.008,1.48798 c -0.0592,11.61905 -13.00146,14.06664 -15.35033,2.90114 -0.46821,-2.22417 -0.38105,-52.11202 0.0939,-53.93515 2.27512,-8.733558 11.39793,-9.317695 14.66422,-0.93949 0.59895,1.53491 0.27713,-12.022773 -0.38887,-16.40173 C 185.54161,34.753571 120.48511,12.591912 81.738506,50.315125 68.300789,63.398149 61.946888,78.769906 61.59154,99.05739 l -0.121018,6.94283 0.469103,-1.24892 c 3.154768,-8.39508 12.797868,-7.546077 14.687578,1.29249 0.168734,0.7898 0.232204,10.15564 0.187172,27.60488 l -0.06873,26.40958 -0.556487,1.36399 c -3.934299,9.64401 -14.881455,6.0134 -14.949619,-4.95996 l -0.0066,-1.11599 -2.537492,-1.33718 c -5.374015,-2.82964 -13.456825,-8.35151 -14.677634,-10.02494 -0.494915,-0.6792 -0.512124,-1.04338 -0.579618,-12.08712 -0.08337,-13.7114 -0.465862,-12.21447 3.975868,-15.54792 l 2.170971,-1.62763 6.7e-4,-10.31204 C 49.586388,98.737896 49.701485,92.81409 49.841053,91.245781 53.73166,47.733485 92.292657,15.565769 135.44434,19.836254 Z m -30.68279,61.842827 c 1.9477,0.955799 3.46967,2.519528 4.43514,4.557471 l 0.78779,1.661587 v 54.070771 54.07031 l -0.92971,1.87898 c -1.09957,2.22416 -2.32763,3.42171 -4.62174,4.50865 l -1.64265,0.77751 -5.935532,0.086 c -9.289763,0.13405 -11.89609,-0.85235 -14.182717,-5.36548 l -0.717288,-1.41538 v -54.554 -54.553469 l 0.698738,-1.363878 c 1.171752,-2.286052 3.07476,-3.980707 5.397815,-4.80558 0.914406,-0.324073 2.271541,-0.379705 8.166284,-0.333346 l 7.06884,0.05552 z m 32.32208,0.116403 c 1.8829,1.021262 3.35569,2.566446 4.23847,4.446989 l 0.65929,1.407668 v 54.310939 54.3105 l -0.81126,1.64997 c -2.13209,4.32657 -4.24964,5.23478 -12.50309,5.35542 -9.22227,0.13517 -11.85385,-0.91491 -14.0541,-5.60789 l -0.66041,-1.40756 V 141.9555 87.650141 l 0.5632,-1.220441 c 2.22148,-4.816082 4.23511,-5.62241 13.8239,-5.538404 l 7.19299,0.06345 z m 31.85499,-0.149469 c 1.83708,0.902178 3.94347,3.167674 4.71003,5.065419 l 0.57883,1.434704 0.0615,44.262552 c 0.0347,24.34404 -0.0223,48.72718 -0.12628,54.18202 l -0.18773,9.91881 -0.6604,1.41203 c -0.87385,1.87116 -2.57684,3.52895 -4.61729,4.49525 l -1.66275,0.78756 h -6.94492 -6.94604 l -1.66164,-0.78756 c -2.04156,-0.9663 -3.74455,-2.62409 -4.6184,-4.49525 l -0.66041,-1.41203 -0.18773,-9.91881 c -0.10392,-5.45484 -0.16091,-29.83798 -0.12627,-54.18202 l 0.0615,-44.262552 0.57549,-1.425431 c 0.62576,-1.547755 2.51983,-3.804092 3.92223,-4.670522 1.81584,-1.121242 2.52989,-1.203238 10.0123,-1.147717 l 7.07007,0.05228 z M 85.551674,106.8671 v 0.99311 h 10.417823 10.417933 v -0.99311 -0.99087 H 95.969497 85.551674 Z m 31.996796,0 v 0.99311 h 10.41905 10.41793 v -0.99311 -0.99087 h -10.41793 -10.41905 z m 31.99802,0 v 0.99311 h 10.54309 10.54085 v -0.99311 -0.99087 h -10.54085 -10.54309 z m 43.58815,100.12091 c 5.29893,2.83076 5.42519,9.91323 0.22685,12.65461 L 192.0876,220.314 H 127.96752 63.847214 l -1.021009,-0.54515 c -5.749811,-3.07539 -5.256235,-10.93314 0.82311,-13.10816 0.786122,-0.28039 11.504984,-0.32843 64.690315,-0.28486 l 63.74797,0.0525 z"
     fill="#b6883f"
     id="path2"
     style="stroke-width:1.11728;fill:#764ba2;fill-opacity:1" />
</svg>
